<svg id="img10" xmlns="http://www.w3.org/2000/svg" width="72.814" height="68.705" viewBox="0 0 72.814 68.705">
  <g id="Grupo_1121707" data-name="Grupo 1121707">
    <g id="Grupo_1121701" data-name="Grupo 1121701" transform="translate(0 48.016)">
      <path id="Trazado_910747" data-name="Trazado 910747" d="M67.311,346.672H5.488A5.492,5.492,0,0,1,0,341.184V337.7H72.8v3.484A5.492,5.492,0,0,1,67.311,346.672Z" transform="translate(0 -337.7)" fill="#bac2ff"/>
      <path id="Trazado_910748" data-name="Trazado 910748" d="M256.1,337.7v8.972h30.911a5.492,5.492,0,0,0,5.488-5.488V337.7Z" transform="translate(-219.686 -337.7)" fill="#cad4ff"/>
    </g>
    <g id="Grupo_1121702" data-name="Grupo 1121702">
      <path id="Trazado_910749" data-name="Trazado 910749" d="M72.8,48.016H0V5.488A5.492,5.492,0,0,1,5.488,0H67.311A5.492,5.492,0,0,1,72.8,5.488Z" transform="translate(0 0)" fill="#616484"/>
      <path id="Trazado_910750" data-name="Trazado 910750" d="M287,0H256.1V48.016h36.386V5.488A5.492,5.492,0,0,0,287,0Z" transform="translate(-219.686)" fill="#424566"/>
    </g>
    <g id="Grupo_1121703" data-name="Grupo 1121703" transform="translate(34.793 50.889)">
      <circle id="Elipse_11582" data-name="Elipse 11582" cx="1.607" cy="1.607" r="1.607" fill="#616484"/>
      <path id="Trazado_910751" data-name="Trazado 910751" d="M256.1,357.9v3.228a1.614,1.614,0,0,0,0-3.228Z" transform="translate(-254.479 -357.9)" fill="#424566"/>
    </g>
    <g id="Grupo_1121704" data-name="Grupo 1121704" transform="translate(21.783 56.988)">
      <path id="Trazado_910752" data-name="Trazado 910752" d="M153.2,409.9a8.781,8.781,0,0,0,7.891-4.934l2.033-4.166h9.384l2.033,4.166a8.8,8.8,0,0,0,7.891,4.934Z" transform="translate(-153.2 -400.8)" fill="#cad4ff"/>
      <path id="Trazado_910753" data-name="Trazado 910753" d="M262.725,404.966l-2.033-4.166H256v9.1h14.617A8.8,8.8,0,0,1,262.725,404.966Z" transform="translate(-241.383 -400.8)" fill="#b3c5ff"/>
    </g>
    <g id="Grupo_1121705" data-name="Grupo 1121705" transform="translate(18.726 66.088)">
      <path id="Trazado_910754" data-name="Trazado 910754" d="M166.436,467.416H132.311a.607.607,0,0,1-.611-.611,2,2,0,0,1,2-2h31.366a2,2,0,0,1,2,2A.662.662,0,0,1,166.436,467.416Z" transform="translate(-131.7 -464.8)" fill="#bac2ff"/>
      <path id="Trazado_910755" data-name="Trazado 910755" d="M271.769,464.8H256.1v2.616h17.062a.631.631,0,0,0,.626-.626A2.04,2.04,0,0,0,271.769,464.8Z" transform="translate(-238.412 -464.8)" fill="#bac2ff"/>
    </g>
    <g id="Grupo_1121706" data-name="Grupo 1121706" transform="translate(2.858 2.858)">
      <path id="Trazado_910756" data-name="Trazado 910756" d="M20.1,62.4V22.73a2.634,2.634,0,0,1,2.63-2.63H84.553a2.634,2.634,0,0,1,2.63,2.63V62.415H20.1Z" transform="translate(-20.1 -20.1)" fill="#e6eaff"/>
      <path id="Trazado_910757" data-name="Trazado 910757" d="M286.911,20.1H256V62.415h33.542V22.73A2.634,2.634,0,0,0,286.911,20.1Z" transform="translate(-222.458 -20.1)" fill="#cad4ff"/>
    </g>
  </g>
  <g id="Grupo_1121721" data-name="Grupo 1121721" transform="translate(2.858 2.858)">
    <g id="Grupo_1121708" data-name="Grupo 1121708" transform="translate(0 5.503)">
      <path id="Trazado_910758" data-name="Trazado 910758" d="M20.1,58.8H86.913v5.062H20.1Z" transform="translate(-20.1 -58.8)" fill="#cad4ff"/>
      <path id="Trazado_910759" data-name="Trazado 910759" d="M256,58.8h33.272v5.062H256Z" transform="translate(-222.458 -58.8)" fill="#b3c5ff"/>
    </g>
    <g id="Grupo_1121709" data-name="Grupo 1121709" transform="translate(2.787 7.067)">
      <path id="Trazado_910760" data-name="Trazado 910760" d="M45.359,71.705H40.653a.953.953,0,1,1,0-1.905h4.706a.953.953,0,1,1,0,1.905Z" transform="translate(-39.7 -69.8)" fill="#fff259"/>
      <path id="Trazado_910761" data-name="Trazado 910761" d="M122.159,71.705h-4.706a.953.953,0,0,1,0-1.905h4.706a.953.953,0,1,1,0,1.905Z" transform="translate(-105.58 -69.8)" fill="#ff4155"/>
      <path id="Trazado_910762" data-name="Trazado 910762" d="M198.973,71.705h-4.721a.953.953,0,1,1,0-1.905h4.706a.953.953,0,0,1,.953.953A.941.941,0,0,1,198.973,71.705Z" transform="translate(-171.46 -69.8)" fill="#47b5ff"/>
      <path id="Trazado_910763" data-name="Trazado 910763" d="M275.859,71.705h-4.706a.953.953,0,1,1,0-1.905h4.706a.953.953,0,1,1,0,1.905Z" transform="translate(-237.426 -69.8)" fill="#5eb206"/>
      <path id="Trazado_910764" data-name="Trazado 910764" d="M352.659,71.705h-4.706a.953.953,0,1,1,0-1.905h4.706a.953.953,0,1,1,0,1.905Z" transform="translate(-303.306 -69.8)" fill="#e6eaff"/>
      <path id="Trazado_910765" data-name="Trazado 910765" d="M429.559,71.705h-4.706a.953.953,0,0,1,0-1.905h4.706a.953.953,0,1,1,0,1.905Z" transform="translate(-369.272 -69.8)" fill="#424566"/>
    </g>
    <g id="Grupo_1121711" data-name="Grupo 1121711" transform="translate(1.848 12.456)">
      <path id="Trazado_910766" data-name="Trazado 910766" d="M38.489,110.942h-4.18a1.208,1.208,0,0,1-1.209-1.209v-.825a1.208,1.208,0,0,1,1.209-1.209h4.18a1.208,1.208,0,0,1,1.209,1.209v.825A1.208,1.208,0,0,1,38.489,110.942Z" transform="translate(-33.1 -107.7)" fill="#616484"/>
      <g id="Grupo_1121710" data-name="Grupo 1121710" transform="translate(0 4.905)">
        <path id="Trazado_910767" data-name="Trazado 910767" d="M38.489,145.442h-4.18a1.208,1.208,0,0,1-1.209-1.209v-.825a1.208,1.208,0,0,1,1.209-1.209h4.18a1.208,1.208,0,0,1,1.209,1.209v.825A1.217,1.217,0,0,1,38.489,145.442Z" transform="translate(-33.1 -142.2)" fill="#a1db33"/>
        <path id="Trazado_910768" data-name="Trazado 910768" d="M38.489,179.842h-4.18a1.208,1.208,0,0,1-1.209-1.209v-.825a1.208,1.208,0,0,1,1.209-1.209h4.18a1.208,1.208,0,0,1,1.209,1.209v.825A1.208,1.208,0,0,1,38.489,179.842Z" transform="translate(-33.1 -171.709)" fill="#a1db33"/>
        <path id="Trazado_910769" data-name="Trazado 910769" d="M38.489,214.342h-4.18a1.208,1.208,0,0,1-1.209-1.209v-.825a1.208,1.208,0,0,1,1.209-1.209h4.18a1.208,1.208,0,0,1,1.209,1.209v.825A1.208,1.208,0,0,1,38.489,214.342Z" transform="translate(-33.1 -201.303)" fill="#a1db33"/>
        <path id="Trazado_910770" data-name="Trazado 910770" d="M38.489,248.842h-4.18a1.208,1.208,0,0,1-1.209-1.209v-.825a1.208,1.208,0,0,1,1.209-1.209h4.18a1.208,1.208,0,0,1,1.209,1.209v.825A1.208,1.208,0,0,1,38.489,248.842Z" transform="translate(-33.1 -230.898)" fill="#a1db33"/>
        <path id="Trazado_910771" data-name="Trazado 910771" d="M38.489,283.342h-4.18a1.208,1.208,0,0,1-1.209-1.209v-.825a1.208,1.208,0,0,1,1.209-1.209h4.18a1.208,1.208,0,0,1,1.209,1.209v.825A1.208,1.208,0,0,1,38.489,283.342Z" transform="translate(-33.1 -260.492)" fill="#a1db33"/>
      </g>
    </g>
    <g id="Grupo_1121713" data-name="Grupo 1121713" transform="translate(10.223 12.456)">
      <path id="Trazado_910772" data-name="Trazado 910772" d="M97.389,110.942h-4.18A1.208,1.208,0,0,1,92,109.733v-.825a1.208,1.208,0,0,1,1.209-1.209h4.18a1.208,1.208,0,0,1,1.209,1.209v.825A1.208,1.208,0,0,1,97.389,110.942Z" transform="translate(-92 -107.7)" fill="#616484"/>
      <g id="Grupo_1121712" data-name="Grupo 1121712" transform="translate(0 4.905)">
        <path id="Trazado_910773" data-name="Trazado 910773" d="M97.389,145.442h-4.18A1.208,1.208,0,0,1,92,144.233v-.825a1.208,1.208,0,0,1,1.209-1.209h4.18a1.208,1.208,0,0,1,1.209,1.209v.825A1.217,1.217,0,0,1,97.389,145.442Z" transform="translate(-92 -142.2)" fill="#cad4ff"/>
        <path id="Trazado_910774" data-name="Trazado 910774" d="M97.389,179.842h-4.18A1.208,1.208,0,0,1,92,178.633v-.825a1.208,1.208,0,0,1,1.209-1.209h4.18a1.208,1.208,0,0,1,1.209,1.209v.825A1.208,1.208,0,0,1,97.389,179.842Z" transform="translate(-92 -171.709)" fill="#cad4ff"/>
        <path id="Trazado_910775" data-name="Trazado 910775" d="M97.389,214.342h-4.18A1.208,1.208,0,0,1,92,213.133v-.825a1.208,1.208,0,0,1,1.209-1.209h4.18a1.208,1.208,0,0,1,1.209,1.209v.825A1.208,1.208,0,0,1,97.389,214.342Z" transform="translate(-92 -201.303)" fill="#cad4ff"/>
        <path id="Trazado_910776" data-name="Trazado 910776" d="M97.389,248.842h-4.18A1.208,1.208,0,0,1,92,247.633v-.825a1.208,1.208,0,0,1,1.209-1.209h4.18a1.208,1.208,0,0,1,1.209,1.209v.825A1.208,1.208,0,0,1,97.389,248.842Z" transform="translate(-92 -230.898)" fill="#cad4ff"/>
        <path id="Trazado_910777" data-name="Trazado 910777" d="M97.389,283.342h-4.18A1.208,1.208,0,0,1,92,282.133v-.825a1.208,1.208,0,0,1,1.209-1.209h4.18a1.208,1.208,0,0,1,1.209,1.209v.825A1.208,1.208,0,0,1,97.389,283.342Z" transform="translate(-92 -260.492)" fill="#cad4ff"/>
      </g>
    </g>
    <g id="Grupo_1121715" data-name="Grupo 1121715" transform="translate(18.228 12.456)">
      <path id="Trazado_910778" data-name="Trazado 910778" d="M153.689,110.942h-4.18a1.208,1.208,0,0,1-1.209-1.209v-.825a1.208,1.208,0,0,1,1.209-1.209h4.18a1.208,1.208,0,0,1,1.209,1.209v.825A1.208,1.208,0,0,1,153.689,110.942Z" transform="translate(-148.3 -107.7)" fill="#616484"/>
      <g id="Grupo_1121714" data-name="Grupo 1121714" transform="translate(0 4.905)">
        <path id="Trazado_910779" data-name="Trazado 910779" d="M153.689,145.442h-4.18a1.208,1.208,0,0,1-1.209-1.209v-.825a1.208,1.208,0,0,1,1.209-1.209h4.18a1.208,1.208,0,0,1,1.209,1.209v.825A1.217,1.217,0,0,1,153.689,145.442Z" transform="translate(-148.3 -142.2)" fill="#cad4ff"/>
        <path id="Trazado_910780" data-name="Trazado 910780" d="M153.689,179.842h-4.18a1.208,1.208,0,0,1-1.209-1.209v-.825a1.208,1.208,0,0,1,1.209-1.209h4.18a1.208,1.208,0,0,1,1.209,1.209v.825A1.208,1.208,0,0,1,153.689,179.842Z" transform="translate(-148.3 -171.709)" fill="#cad4ff"/>
        <path id="Trazado_910781" data-name="Trazado 910781" d="M153.689,214.342h-4.18a1.208,1.208,0,0,1-1.209-1.209v-.825a1.208,1.208,0,0,1,1.209-1.209h4.18a1.208,1.208,0,0,1,1.209,1.209v.825A1.208,1.208,0,0,1,153.689,214.342Z" transform="translate(-148.3 -201.303)" fill="#cad4ff"/>
        <path id="Trazado_910782" data-name="Trazado 910782" d="M153.689,248.842h-4.18a1.208,1.208,0,0,1-1.209-1.209v-.825a1.208,1.208,0,0,1,1.209-1.209h4.18a1.208,1.208,0,0,1,1.209,1.209v.825A1.208,1.208,0,0,1,153.689,248.842Z" transform="translate(-148.3 -230.898)" fill="#cad4ff"/>
        <path id="Trazado_910783" data-name="Trazado 910783" d="M153.689,283.342h-4.18a1.208,1.208,0,0,1-1.209-1.209v-.825a1.208,1.208,0,0,1,1.209-1.209h4.18a1.208,1.208,0,0,1,1.209,1.209v.825A1.208,1.208,0,0,1,153.689,283.342Z" transform="translate(-148.3 -260.492)" fill="#cad4ff"/>
      </g>
    </g>
    <g id="Grupo_1121717" data-name="Grupo 1121717" transform="translate(26.418 12.456)">
      <path id="Trazado_910784" data-name="Trazado 910784" d="M211.289,110.942h-4.18a1.208,1.208,0,0,1-1.209-1.209v-.825a1.208,1.208,0,0,1,1.209-1.209h4.18a1.208,1.208,0,0,1,1.209,1.209v.825A1.2,1.2,0,0,1,211.289,110.942Z" transform="translate(-205.9 -107.7)" fill="#616484"/>
      <g id="Grupo_1121716" data-name="Grupo 1121716" transform="translate(0 4.905)">
        <path id="Trazado_910785" data-name="Trazado 910785" d="M211.289,145.442h-4.18a1.208,1.208,0,0,1-1.209-1.209v-.825a1.208,1.208,0,0,1,1.209-1.209h4.18a1.208,1.208,0,0,1,1.209,1.209v.825A1.208,1.208,0,0,1,211.289,145.442Z" transform="translate(-205.9 -142.2)" fill="#cad4ff"/>
        <path id="Trazado_910786" data-name="Trazado 910786" d="M211.289,179.842h-4.18a1.208,1.208,0,0,1-1.209-1.209v-.825a1.208,1.208,0,0,1,1.209-1.209h4.18a1.208,1.208,0,0,1,1.209,1.209v.825A1.2,1.2,0,0,1,211.289,179.842Z" transform="translate(-205.9 -171.709)" fill="#cad4ff"/>
        <path id="Trazado_910787" data-name="Trazado 910787" d="M211.289,214.342h-4.18a1.208,1.208,0,0,1-1.209-1.209v-.825a1.208,1.208,0,0,1,1.209-1.209h4.18a1.208,1.208,0,0,1,1.209,1.209v.825A1.2,1.2,0,0,1,211.289,214.342Z" transform="translate(-205.9 -201.303)" fill="#cad4ff"/>
        <path id="Trazado_910788" data-name="Trazado 910788" d="M211.289,248.842h-4.18a1.208,1.208,0,0,1-1.209-1.209v-.825a1.208,1.208,0,0,1,1.209-1.209h4.18a1.208,1.208,0,0,1,1.209,1.209v.825A1.2,1.2,0,0,1,211.289,248.842Z" transform="translate(-205.9 -230.898)" fill="#cad4ff"/>
        <path id="Trazado_910789" data-name="Trazado 910789" d="M211.289,283.342h-4.18a1.208,1.208,0,0,1-1.209-1.209v-.825a1.208,1.208,0,0,1,1.209-1.209h4.18a1.208,1.208,0,0,1,1.209,1.209v.825A1.2,1.2,0,0,1,211.289,283.342Z" transform="translate(-205.9 -260.492)" fill="#cad4ff"/>
      </g>
    </g>
    <g id="Grupo_1121720" data-name="Grupo 1121720" transform="translate(0)">
      <path id="Trazado_910793" data-name="Trazado 910793" d="M84.553,20.1H22.73a2.634,2.634,0,0,0-2.63,2.63V25.6H87.2V22.73a2.655,2.655,0,0,0-2.645-2.63Z" transform="translate(-20.1 -20.1)" fill="#a1db33"/>
      <path id="Trazado_910794" data-name="Trazado 910794" d="M286.054,20.1H255v5.5h33.684V22.73A2.634,2.634,0,0,0,286.054,20.1Z" transform="translate(-221.6 -20.1)" fill="#5eb206"/>
    </g>
  </g>
</svg>
