<svg xmlns="http://www.w3.org/2000/svg" width="66.578" height="63.835" viewBox="0 0 66.578 63.835">
  <g id="img15" transform="translate(0 -10.549)">
    <g id="Grupo_1122267" data-name="Grupo 1122267" transform="translate(2.842 10.549)">
      <g id="Grupo_1122266" data-name="Grupo 1122266" transform="translate(0 0)">
        <g id="Grupo_1122263" data-name="Grupo 1122263" transform="translate(0.213 0)">
          <ellipse id="Elipse_11609" data-name="Elipse 11609" cx="31.762" cy="31.917" rx="31.762" ry="31.917" fill="#c9f0ff"/>
        </g>
        <path id="Trazado_911436" data-name="Trazado 911436" d="M254.3,10.549q-1.012,0-2.009.063a31.928,31.928,0,0,1,0,63.709q1,.063,2.009.063a31.918,31.918,0,0,0,0-63.835Z" transform="translate(-222.327 -10.549)" fill="#b5eaff"/>
        <g id="Grupo_1122265" data-name="Grupo 1122265" transform="translate(0 4.296)">
          <g id="Grupo_1122264" data-name="Grupo 1122264">
            <path id="Trazado_911437" data-name="Trazado 911437" d="M127.54,43.6a1,1,0,0,0-1.075,1.481q.96-.679,1.971-1.287Q127.99,43.7,127.54,43.6Z" transform="translate(-112.748 -43.583)" fill="#3498ac"/>
            <path id="Trazado_911438" data-name="Trazado 911438" d="M21.887,215.964a1,1,0,0,0,.38.556q.1-.885.246-1.755A1,1,0,0,0,21.887,215.964Z" transform="translate(-21.854 -192.505)" fill="#3498ac"/>
            <path id="Trazado_911439" data-name="Trazado 911439" d="M122.142,453.582a1,1,0,0,0,.04.278q.012.043.028.084v0a1,1,0,0,0,1.771.434l.025-.008q-1.01-.643-1.968-1.36Q122.09,453.3,122.142,453.582Z" transform="translate(-109.012 -399.773)" fill="#3498ac"/>
            <path id="Trazado_911440" data-name="Trazado 911440" d="M399.02,454.737a1,1,0,0,0,1.178-.794q.091-.467.172-.934-.951.712-1.956,1.352A1,1,0,0,0,399.02,454.737Z" transform="translate(-349.448 -399.769)" fill="#3498ac"/>
            <path id="Trazado_911441" data-name="Trazado 911441" d="M395.068,44.387a1,1,0,0,0-1.186-.783q-.45.092-.9.194,1.01.608,1.971,1.287A1,1,0,0,0,395.068,44.387Z" transform="translate(-344.726 -43.584)" fill="#3498ac"/>
            <path id="Trazado_911442" data-name="Trazado 911442" d="M458.6,101.089A1,1,0,0,0,457.1,100q.7.857,1.333,1.763Q458.517,101.427,458.6,101.089Z" transform="translate(-400.504 -92.54)" fill="#3498ac"/>
          </g>
          <path id="Trazado_911443" data-name="Trazado 911443" d="M73.765,74.287A62.892,62.892,0,0,0,82.55,54.241q-.637-.905-1.334-1.763a1,1,0,0,0-.464.636,60.889,60.889,0,0,1-8.126,19.245A46.712,46.712,0,0,0,68.5,64.683a46.153,46.153,0,0,0-10.2-11,43.864,43.864,0,0,1,15.875-6.677,1,1,0,0,0,.671-.488q-.96-.679-1.971-1.287a45.8,45.8,0,0,0-16.286,7.191,45.8,45.8,0,0,0-16.286-7.191q-1.01.608-1.971,1.287a1,1,0,0,0,.672.488,43.866,43.866,0,0,1,15.875,6.677,46.153,46.153,0,0,0-10.2,11q-.187.282-.369.566a62.675,62.675,0,0,0-18.945,2c-.031.008-.06.018-.09.028q-.146.87-.246,1.755a1,1,0,0,0,.847.159,60.685,60.685,0,0,1,17.237-1.978,46.071,46.071,0,0,0-5.47,31.044q.957.716,1.968,1.36A62.757,62.757,0,0,0,72.09,76.679,44.213,44.213,0,0,1,73.4,98.807a1,1,0,0,0,.188.8q1-.64,1.956-1.352A46.2,46.2,0,0,0,74.3,76.995a60.9,60.9,0,0,1,10.77,8.922,1,1,0,0,0,.317.222q.442-.951.823-1.935A62.92,62.92,0,0,0,73.765,74.287ZM56.593,54.907A44.108,44.108,0,0,1,66.83,65.794a44.728,44.728,0,0,1,3.63,6.618,62.694,62.694,0,0,0-11.684-4.741A62.011,62.011,0,0,0,46.62,65.4,44.072,44.072,0,0,1,56.593,54.907ZM39.561,97.533a44.073,44.073,0,0,1,5.824-30.209A60.019,60.019,0,0,1,58.212,69.6a60.722,60.722,0,0,1,12.666,5.328A60.758,60.758,0,0,1,39.561,97.533Z" transform="translate(-24.619 -45.018)" fill="#78d2f5"/>
        </g>
      </g>
    </g>
    <g id="Grupo_1122268" data-name="Grupo 1122268" transform="translate(0 12.78)">
      <ellipse id="Elipse_11610" data-name="Elipse 11610" cx="3.054" cy="3.069" rx="3.054" ry="3.069" transform="translate(31.762 7.363)" fill="#ff815c"/>
      <ellipse id="Elipse_11611" data-name="Elipse 11611" cx="3.054" cy="3.069" rx="3.054" ry="3.069" transform="translate(19.875 20.849)" fill="#ff815c"/>
      <ellipse id="Elipse_11612" data-name="Elipse 11612" cx="3.054" cy="3.069" rx="3.054" ry="3.069" transform="translate(47.654 28.684)" fill="#ff815c"/>
      <path id="Trazado_911444" data-name="Trazado 911444" d="M110.118,439.906a3.069,3.069,0,1,1,3.055-3.069A3.065,3.065,0,0,1,110.118,439.906Z" transform="translate(-93.142 -380.965)" fill="#ff815c"/>
      <path id="Trazado_911445" data-name="Trazado 911445" d="M385.859,441.248a3.069,3.069,0,1,1,3.055-3.069A3.065,3.065,0,0,1,385.859,441.248Z" transform="translate(-333.027 -382.132)" fill="#ff815c"/>
      <path id="Trazado_911446" data-name="Trazado 911446" d="M440.625,89.276a3.069,3.069,0,1,1,3.054-3.069A3.065,3.065,0,0,1,440.625,89.276Z" transform="translate(-380.67 -75.929)" fill="#ff815c"/>
      <path id="Trazado_911447" data-name="Trazado 911447" d="M380.993,33.847a3.069,3.069,0,1,1,3.055-3.069A3.065,3.065,0,0,1,380.993,33.847Z" transform="translate(-328.794 -27.708)" fill="#ff815c"/>
      <path id="Trazado_911448" data-name="Trazado 911448" d="M110.118,33.847a3.069,3.069,0,1,1,3.055-3.069A3.065,3.065,0,0,1,110.118,33.847Z" transform="translate(-93.142 -27.708)" fill="#ff815c"/>
      <ellipse id="Elipse_11613" data-name="Elipse 11613" cx="3.054" cy="3.069" rx="3.054" ry="3.069" transform="translate(0 22.431)" fill="#ff815c"/>
    </g>
  </g>
</svg>
