<svg xmlns="http://www.w3.org/2000/svg" width="62.668" height="46.319" viewBox="0 0 62.668 46.319">
  <g id="img14" transform="translate(0 -64)">
    <path id="Trazado_911432" data-name="Trazado 911432" d="M311.279,85.333v38.146a5.483,5.483,0,0,1-1.594,3.855l-24.291-24.291-.382-.586Z" transform="translate(-248.612 -18.608)" fill="#f6b445"/>
    <path id="Trazado_911433" data-name="Trazado 911433" d="M71.96,244.289a5.483,5.483,0,0,1-3.855,1.594H16.335a5.483,5.483,0,0,1-3.855-1.594L36.771,220l.341-.531,5.109,3.256,5.068-3.31.381.586Z" transform="translate(-10.886 -135.564)" fill="#f6a645"/>
    <path id="Trazado_911434" data-name="Trazado 911434" d="M26.225,110.05l-.341.531L1.594,134.871A5.483,5.483,0,0,1,0,131.016V95.6a5.372,5.372,0,0,1,.245-1.621l1.117.259Z" transform="translate(0 -26.146)" fill="#f6b445"/>
    <path id="Trazado_911435" data-name="Trazado 911435" d="M64.342,66.725,38.077,83.849l-5.068,3.31L27.9,83.9,3.037,68.087,1.92,67.828A5.449,5.449,0,0,1,7.124,64H57.531c5.449,0,6.812,2.725,6.812,2.725Z" transform="translate(-1.675)" fill="#fed049"/>
  </g>
</svg>
