<svg xmlns="http://www.w3.org/2000/svg" width="60.836" height="60.836" viewBox="0 0 60.836 60.836">
  <g id="img2" transform="translate(0)">
    <path id="Trazado_875523" data-name="Trazado 875523" d="M60.836,25.261A10.034,10.034,0,0,1,50.8,35.3H10.034a10.034,10.034,0,0,1-3.3-19.509,8.469,8.469,0,0,1,12.1-8.2A12.636,12.636,0,0,1,42,7.585a8.47,8.47,0,0,1,12.1,8.2,10.034,10.034,0,0,1,6.731,9.475Z" transform="translate(0 0)" fill="#a8ebfa"/>
    <path id="Trazado_875524" data-name="Trazado 875524" d="M286.418,25.261A10.034,10.034,0,0,1,276.384,35.3H256V0a12.634,12.634,0,0,1,11.583,7.585,8.47,8.47,0,0,1,12.1,8.2A10.034,10.034,0,0,1,286.418,25.261Z" transform="translate(-225.582 0)" fill="#7dd5f4"/>
    <path id="Trazado_875525" data-name="Trazado 875525" d="M81.19,185.21h41.757v31.7H81.19Z" transform="translate(-71.543 -163.203)" fill="#f0f7ff"/>
    <path id="Trazado_875526" data-name="Trazado 875526" d="M255.71,185.21H276.73v31.7H255.71Z" transform="translate(-225.326 -163.203)" fill="#dfe7f4"/>
    <g id="Grupo_1102405" data-name="Grupo 1102405" transform="translate(7.486 20.621)">
      <g id="Grupo_1102404" data-name="Grupo 1102404">
        <g id="Grupo_1102403" data-name="Grupo 1102403">
          <g id="Grupo_1102402" data-name="Grupo 1102402">
            <path id="Trazado_875527" data-name="Trazado 875527" d="M107.013,173.55H64.782A1.783,1.783,0,0,0,63,175.332v30.709a1.783,1.783,0,0,0,1.782,1.782h42.231a1.783,1.783,0,0,0,1.782-1.782V175.332A1.783,1.783,0,0,0,107.013,173.55Zm-1.782,30.709H66.565V177.115h38.666Z" transform="translate(-63 -173.55)" fill="#453d81"/>
          </g>
        </g>
      </g>
    </g>
    <g id="Grupo_1102411" data-name="Grupo 1102411" transform="translate(18.519 28.847)">
      <g id="Grupo_1102409" data-name="Grupo 1102409" transform="translate(0 0)">
        <g id="Grupo_1102406" data-name="Grupo 1102406" transform="translate(5.041 7.129)">
          <path id="Trazado_875528" data-name="Trazado 875528" d="M211.408,307.906a1.784,1.784,0,0,1-2.521,0,5.347,5.347,0,0,0-7.562,0,1.782,1.782,0,0,1-2.521-2.52,8.913,8.913,0,0,1,12.6,0A1.784,1.784,0,0,1,211.408,307.906Z" transform="translate(-198.282 -302.775)" fill="#5800ff"/>
        </g>
        <g id="Grupo_1102407" data-name="Grupo 1102407">
          <path id="Trazado_875529" data-name="Trazado 875529" d="M179.066,249.995a1.783,1.783,0,0,1-2.52,0,12.472,12.472,0,0,0-17.642,0,1.782,1.782,0,0,1-2.521-2.52,16.038,16.038,0,0,1,22.685,0,1.781,1.781,0,0,1,0,2.52Z" transform="translate(-155.86 -242.775)" fill="#5800ff"/>
        </g>
        <g id="Grupo_1102408" data-name="Grupo 1102408" transform="translate(10.082 14.258)">
          <circle id="Elipse_11526" data-name="Elipse 11526" cx="1.782" cy="1.782" r="1.782" fill="#5800ff"/>
        </g>
      </g>
      <g id="Grupo_1102410" data-name="Grupo 1102410" transform="translate(11.864)">
        <path id="Trazado_875530" data-name="Trazado 875530" d="M257.492,364.557a1.783,1.783,0,0,1-1.782,1.782v-3.565A1.782,1.782,0,0,1,257.492,364.557Z" transform="translate(-255.71 -348.517)" fill="#5800ff"/>
        <path id="Trazado_875531" data-name="Trazado 875531" d="M262.012,305.385a1.782,1.782,0,0,1-2.521,2.52,5.31,5.31,0,0,0-3.781-1.566v-3.565A8.853,8.853,0,0,1,262.012,305.385Z" transform="translate(-255.71 -295.646)" fill="#5800ff"/>
        <path id="Trazado_875532" data-name="Trazado 875532" d="M267.051,249.995a1.783,1.783,0,0,1-2.52,0,12.386,12.386,0,0,0-8.821-3.655v-3.565a15.932,15.932,0,0,1,11.343,4.7A1.781,1.781,0,0,1,267.051,249.995Z" transform="translate(-255.71 -242.775)" fill="#5800ff"/>
      </g>
    </g>
    <path id="Trazado_875533" data-name="Trazado 875533" d="M278.863,175.332v30.709a1.783,1.783,0,0,1-1.782,1.782H256v-3.565h19.3V177.115H256V173.55h21.081A1.783,1.783,0,0,1,278.863,175.332Z" transform="translate(-225.582 -152.929)" fill="#332e70"/>
    <g id="Grupo_1102413" data-name="Grupo 1102413" transform="translate(3.565 51.33)">
      <g id="Grupo_1102412" data-name="Grupo 1102412">
        <path id="Trazado_875534" data-name="Trazado 875534" d="M83.707,433.782v.895a6.836,6.836,0,0,1-6.829,6.829H36.829A6.836,6.836,0,0,1,30,434.677v-.895A1.783,1.783,0,0,1,31.782,432H81.924A1.783,1.783,0,0,1,83.707,433.782Z" transform="translate(-30 -432)" fill="#5e54ac"/>
      </g>
      <path id="Trazado_875535" data-name="Trazado 875535" d="M282.6,433.782v.895a6.836,6.836,0,0,1-6.829,6.829H255.71V432h25.106A1.783,1.783,0,0,1,282.6,433.782Z" transform="translate(-228.891 -432)" fill="#453d81"/>
    </g>
  </g>
</svg>
