<svg xmlns="http://www.w3.org/2000/svg" width="62" height="64.07" viewBox="0 0 62 64.07">
  <g id="img3" transform="translate(-1 0.07)">
    <circle id="Elipse_11571" data-name="Elipse 11571" cx="7" cy="7" r="7" transform="translate(20 4)" fill="#88b8f9"/>
    <path id="Trazado_910615" data-name="Trazado 910615" d="M43.07,32.61v-.08l-7.51-11.2-.13-.18a3.08,3.08,0,0,0-1.37-1A3.31,3.31,0,0,0,33,20H20v.2a3.06,3.06,0,0,0-1.42,1.13L11,32.53l-.05.08A2.44,2.44,0,0,0,10.5,34,2.5,2.5,0,0,0,13,36.5h6.34l-.21,5.13L15.9,44.48l-.12.11a3.17,3.17,0,0,0-1,3.1l3.28,13.94a3,3,0,0,0,5.86-1.26l-2.33-12L25.85,45h2.3l4.25,3.34-2.33,12a3,3,0,0,0,5.86,1.26l3.28-13.94a3.21,3.21,0,0,0-1-3.11l-.12-.1L34.86,41.6l-.16-4.1H31a3.5,3.5,0,0,1,0-7h3.42v-.88l1.47,1.88H31a2.5,2.5,0,0,0,0,5H41a2.45,2.45,0,0,0,1.39-.43,2.49,2.49,0,0,0,.68-3.46ZM18.14,31.5l1.47-1.85-.07,1.85Z" fill="#88b8f9"/>
    <rect id="Rect치ngulo_410302" data-name="Rect치ngulo 410302" width="20" height="16" rx="2" transform="translate(1 16)" fill="#2f79f0"/>
    <rect id="Rect치ngulo_410303" data-name="Rect치ngulo 410303" width="50" height="4" rx="1" transform="translate(1 36)" fill="#2f79f0"/>
    <g id="Grupo_1121619" data-name="Grupo 1121619">
      <path id="Trazado_910616" data-name="Trazado 910616" d="M11,64H7L6,44h6Z" fill="#0c3798"/>
      <path id="Trazado_910617" data-name="Trazado 910617" d="M45,64H41L40,44h6Z" fill="#0c3798"/>
      <path id="Trazado_910618" data-name="Trazado 910618" d="M2,40H50v6a2,2,0,0,1-2,2H4a2,2,0,0,1-2-2Z" fill="#0c3798"/>
    </g>
    <circle id="Elipse_11572" data-name="Elipse 11572" cx="2" cy="2" r="2" transform="translate(9 22)" fill="#fffeff"/>
    <path id="Trazado_910619" data-name="Trazado 910619" d="M18,34H36v2H18Z" fill="#71ffe9"/>
    <path id="Trazado_910620" data-name="Trazado 910620" d="M14,34H8l.81-3.24a1,1,0,0,1,1-.76h2.44a1,1,0,0,1,1,.76Z" fill="#b7dbf9"/>
    <path id="Trazado_910621" data-name="Trazado 910621" d="M6,34H16v2H6Z" fill="#0c3798"/>
    <path id="Trazado_910622" data-name="Trazado 910622" d="M51.07,5.93a.93.93,0,0,1-.66-1.59.91.91,0,0,0,0-1.31L48.9,1.51a.93.93,0,0,0-1.31,0A.93.93,0,0,1,46,.86a.93.93,0,0,0-.93-.93H42.93A.93.93,0,0,0,42,.86a.93.93,0,0,1-1.59.65.93.93,0,0,0-1.31,0L37.59,3a.91.91,0,0,0,0,1.31.93.93,0,0,1-.66,1.59.93.93,0,0,0-.93.93V9a.93.93,0,0,0,.93.93.93.93,0,0,1,.66,1.58.92.92,0,0,0,0,1.32l1.51,1.51a.91.91,0,0,0,1.31,0A.93.93,0,0,1,42,15a.93.93,0,0,0,.93.93h2.14A.93.93,0,0,0,46,15a.93.93,0,0,1,1.59-.66.91.91,0,0,0,1.31,0l1.51-1.51a.92.92,0,0,0,0-1.32.93.93,0,0,1,.66-1.58A.93.93,0,0,0,52,9V6.86a.93.93,0,0,0-.93-.93Z" fill="#005c64"/>
    <circle id="Elipse_11573" data-name="Elipse 11573" cx="3" cy="3" r="3" transform="translate(41 4.93)" fill="#fffeff"/>
    <path id="Trazado_910623" data-name="Trazado 910623" d="M63,25V23a1,1,0,0,0-1-1h-.57a1.082,1.082,0,0,1-.8-1.81l.4-.41a1,1,0,0,0,0-1.42l-1.4-1.4a1,1,0,0,0-1.42,0l-.41.4a1.082,1.082,0,0,1-1.81-.8V16a1,1,0,0,0-1-1H53a1,1,0,0,0-1,1v.57a1.082,1.082,0,0,1-1.81.8l-.41-.4a1,1,0,0,0-1.42,0l-1.4,1.4a1,1,0,0,0,0,1.42l.4.41a1.082,1.082,0,0,1-.8,1.81H46a1,1,0,0,0-1,1v2a1,1,0,0,0,1,1h.57a1.082,1.082,0,0,1,.8,1.81l-.4.41a1,1,0,0,0,0,1.42l1.4,1.4a1,1,0,0,0,1.42,0l.41-.4a1.082,1.082,0,0,1,1.81.8V32a1,1,0,0,0,1,1h2a1,1,0,0,0,1-1v-.57a1.082,1.082,0,0,1,1.81-.8l.41.4a1,1,0,0,0,1.42,0l1.4-1.4a1,1,0,0,0,0-1.42l-.4-.41a1.082,1.082,0,0,1,.8-1.81H62A1,1,0,0,0,63,25Z" fill="#5800ff"/>
    <circle id="Elipse_11574" data-name="Elipse 11574" cx="4" cy="4" r="4" transform="translate(50 20)" fill="#fffeff"/>
  </g>
</svg>
