<svg id="img8" xmlns="http://www.w3.org/2000/svg" width="62.379" height="81.791" viewBox="0 0 62.379 81.791">
  <g id="_013---Click" data-name="013---Click">
    <path id="Shape" d="M41.586,31.5V20.407A19.407,19.407,0,0,0,22.179,1H19.407A19.407,19.407,0,0,0,0,20.407V46.744A19.407,19.407,0,0,0,19.407,66.151h2.772a19.736,19.736,0,0,0,4.741-.582Z" transform="translate(0 0.386)" fill="#3b97d3"/>
    <path id="Shape-2" data-name="Shape" d="M41.586,20.407v6.931H0V20.407A19.407,19.407,0,0,1,19.407,1h2.772A19.407,19.407,0,0,1,41.586,20.407Z" transform="translate(0 0.386)" fill="#2980ba"/>
    <path id="Rectangle-path" d="M14,1h2.772V27.338H14Z" transform="translate(5.407 0.386)" fill="#285680"/>
    <path id="Shape-3" data-name="Shape" d="M59.687,35.953V56.746c0,5.545,0,8.317-2.772,12.476-.8,1.206-1.372,2.176-1.788,2.953l-23.482-.152a13.184,13.184,0,0,0-4.505-7.929A25.583,25.583,0,0,1,22.9,60.364,49.246,49.246,0,0,1,18,54.611,11.037,11.037,0,0,0,10.7,51.174a4.159,4.159,0,0,1,.222-8.289c5.489-.374,9.066,1.206,13.349,3.937A1.386,1.386,0,0,0,26.4,45.657l.014-30.5A4.159,4.159,0,0,1,30.8,11,4.336,4.336,0,0,1,34.735,15.4v16.4a4.174,4.174,0,0,1,1.22-2.939,3.934,3.934,0,0,1,1.553-.97,3.843,3.843,0,0,1,1.386-.25,4.159,4.159,0,0,1,4.159,4.159v1.386a4.174,4.174,0,0,1,1.22-2.939,3.934,3.934,0,0,1,1.553-.97,3.843,3.843,0,0,1,1.386-.25,4.159,4.159,0,0,1,4.159,4.159v2.772a4.114,4.114,0,0,1,2.772-3.909,3.843,3.843,0,0,1,1.386-.25,4.159,4.159,0,0,1,4.159,4.159Z" transform="translate(2.692 4.246)" fill="#ffa485"/>
    <g id="Grupo_1121697" data-name="Grupo 1121697" transform="translate(16.634)">
      <rect id="Rectangle-path-2" data-name="Rectangle-path" width="27.724" height="5.545" rx="2" transform="translate(15.248 76.246)" fill="#67b9cc"/>
      <path id="Shape-4" data-name="Shape" d="M37.545,9.772H33.386a1.386,1.386,0,1,1,0-2.772h4.159a1.386,1.386,0,1,1,0,2.772Z" transform="translate(-4.276 2.703)" fill="#67b9cc"/>
      <path id="Shape-5" data-name="Shape" d="M33.386,7.6a1.386,1.386,0,0,1-.98-2.366l2.94-2.94a1.386,1.386,0,1,1,1.96,1.96l-2.94,2.94a1.386,1.386,0,0,1-.98.406Z" transform="translate(-4.276 0.721)" fill="#67b9cc"/>
      <path id="Shape-6" data-name="Shape" d="M30.386,6.931A1.386,1.386,0,0,1,29,5.545V1.386a1.386,1.386,0,1,1,2.772,0V5.545A1.386,1.386,0,0,1,30.386,6.931Z" transform="translate(-5.435)" fill="#67b9cc"/>
      <rect id="Rectangle-path-3" data-name="Rectangle-path" width="8.317" height="16.634" rx="3" transform="translate(0 16.634)" fill="#67b9cc"/>
    </g>
    <path id="Shape-7" data-name="Shape" d="M41.772,26.18v8.068a1.386,1.386,0,1,1-2.772,0V30.089A4.114,4.114,0,0,1,41.772,26.18Z" transform="translate(15.062 10.111)" fill="#e87d58"/>
    <path id="Shape-8" data-name="Shape" d="M29.772,23.18v9.454a1.386,1.386,0,0,1-2.772,0V27.089a4.174,4.174,0,0,1,1.22-2.939A3.934,3.934,0,0,1,29.772,23.18Z" transform="translate(10.427 8.952)" fill="#e87d58"/>
    <path id="Shape-9" data-name="Shape" d="M35.772,24.18v9.454a1.386,1.386,0,1,1-2.772,0V28.089a4.174,4.174,0,0,1,1.22-2.939A3.934,3.934,0,0,1,35.772,24.18Z" transform="translate(12.744 9.338)" fill="#e87d58"/>
  </g>
</svg>
